<svg width="101" height="100" fill="none" xmlns="http://www.w3.org/2000/svg"><g opacity=".5" stroke="#4F4F4F"><rect x="99.252" y="99" width="98" height="98" rx="49" transform="rotate(-180 99.252 99)" stroke-width="2"/><path d="M38.9 49l-.854.853h24.747c.084 0 .148.064.148.147a.145.145 0 01-.147.147H38.046l.853.854 4.831 4.83c.06.06.06.15 0 .209a.143.143 0 01-.208 0l-5.936-5.936a.154.154 0 01-.043-.104c0-.036.016-.077.043-.104l5.936-5.936c.06-.06.149-.06.208 0 .06.06.06.149 0 .208L38.9 49z" fill="#8D6B6B"/></g></svg>