<svg width="64" height="64" fill="none" xmlns="http://www.w3.org/2000/svg"><g clip-path="url(#clip0)"><path d="M58.474 77.667v.003a2.36 2.36 0 01-.146.785 1.915 1.915 0 01-.09.22 2.55 2.55 0 01-.31.519c-.046.06-.084.123-.137.18-.026.03-.042.065-.069.093a2.601 2.601 0 01-.553.429c-.02.013-.044.016-.065.028-.223.123-.457.2-.697.25-.034.006-.063.028-.097.034l-15.75 2.4c-1.206.185-2.195-.651-2.209-1.87-.012-1.217.955-2.353 2.164-2.537l8.491-1.295c-6.834-4.517-11.738-11.044-11.967-11.355-15.668-19.542-13.897-48.162 3.949-63.798.883-.774 2.082-.83 2.83-.179.08.07.154.146.224.23.709.886.493 2.296-.483 3.153-15.895 13.928-17.234 39.72-2.943 57.546.062.086 5.125 6.833 11.786 11.008l-3.13-9.47c-.367-1.111.27-2.442 1.42-2.976 1.149-.536 2.373-.067 2.746 1.04l4.936 14.93c.065.203.097.416.1.632z" fill="#FD8BA3"/></g><defs><clipPath id="clip0"><path fill="#fff" transform="scale(1 -1) rotate(-41.005 -64.572 -24.17)" d="M0 0h64v64H0z"/></clipPath></defs></svg>