<svg width="25" height="24" fill="none" xmlns="http://www.w3.org/2000/svg"><g clip-path="url(#clip0)" fill="#FD8BA3" stroke="#FD8BA3" stroke-width=".5"><path d="M12.998.479C6.635.479 1.478 5.637 1.478 12s5.157 11.521 11.52 11.521c6.364 0 11.522-5.158 11.522-11.521C24.512 5.64 19.358.487 12.998.479zm.495 22.03v-2.027a.494.494 0 1 0-.989 0v2.026A10.528 10.528 0 0 1 2.49 12.494h2.027a.494.494 0 0 0 0-.988H2.49A10.528 10.528 0 0 1 12.504 1.492v2.026a.494.494 0 0 0 .989 0V1.492a10.528 10.528 0 0 1 10.013 10.014H21.48a.494.494 0 0 0 0 .988H23.511a10.528 10.528 0 0 1-10.018 10.014z"/><path d="M18.211 16.597l-4.72-4.8V6.81a.494.494 0 0 0-.989 0V12c.001.13.053.254.144.346l4.858 4.943a.495.495 0 1 0 .707-.692z"/></g><defs><clipPath id="clip0"><path fill="#fff" transform="translate(.998)" d="M0 0h24v24H0z"/></clipPath></defs></svg>